<svg xmlns="http://www.w3.org/2000/svg" xmlns:xlink="http://www.w3.org/1999/xlink" width="16" height="16" version="1.1" viewBox="0 0 16 16"><title>awake</title><desc>Created with Sketch.</desc><g id="awake" fill="none" fill-rule="evenodd" stroke="none" stroke-width="1"><polygon id="Path-54" fill="#000" fill-rule="nonzero" points="7.5 0 8.5 0 8.5 3 7.5 3"/><polygon id="Path-54" fill="#000" fill-rule="nonzero" points="7.5 13 8.5 13 8.5 16 7.5 16"/><polygon id="Path-54" fill="#000" fill-rule="nonzero" points="14 6.5 15 6.5 15 9.5 14 9.5" transform="translate(14.500000, 8.000000) rotate(90.000000) translate(-14.500000, -8.000000)"/><polygon id="Path-54" fill="#000" fill-rule="nonzero" points="1 6.5 2 6.5 2 9.5 1 9.5" transform="translate(1.500000, 8.000000) rotate(90.000000) translate(-1.500000, -8.000000)"/><polygon id="Path-54" fill="#000" fill-rule="nonzero" points="2.904 1.904 3.904 1.904 3.904 4.904 2.904 4.904" transform="translate(3.403806, 3.403806) rotate(-45.000000) translate(-3.403806, -3.403806)"/><polygon id="Path-54" fill="#000" fill-rule="nonzero" points="12.096 11.096 13.096 11.096 13.096 14.096 12.096 14.096" transform="translate(12.596194, 12.596194) rotate(-45.000000) translate(-12.596194, -12.596194)"/><polygon id="Path-54" fill="#000" fill-rule="nonzero" points="12.096 1.904 13.096 1.904 13.096 4.904 12.096 4.904" transform="translate(12.596194, 3.403806) rotate(45.000000) translate(-12.596194, -3.403806)"/><polygon id="Path-54" fill="#000" fill-rule="nonzero" points="2.904 11.096 3.904 11.096 3.904 14.096 2.904 14.096" transform="translate(3.403806, 12.596194) rotate(45.000000) translate(-3.403806, -12.596194)"/><path id="Oval-6" fill="#000" fill-rule="nonzero" d="M8,10.5 C9.38071187,10.5 10.5,9.38071187 10.5,8 C10.5,6.61928813 9.38071187,5.5 8,5.5 C6.61928813,5.5 5.5,6.61928813 5.5,8 C5.5,9.38071187 6.61928813,10.5 8,10.5 Z M8,11.5 C6.06700338,11.5 4.5,9.93299662 4.5,8 C4.5,6.06700338 6.06700338,4.5 8,4.5 C9.93299662,4.5 11.5,6.06700338 11.5,8 C11.5,9.93299662 9.93299662,11.5 8,11.5 Z"/></g></svg>