<svg xmlns="http://www.w3.org/2000/svg" xmlns:xlink="http://www.w3.org/1999/xlink" width="12" height="16" version="1.1" viewBox="0 0 12 16"><title>document</title><desc>Created with Sketch.</desc><g id="document" fill="none" fill-rule="evenodd" stroke="none" stroke-width="1"><path id="Combined-Shape" fill="#000" fill-rule="nonzero" d="M10.5813895,3.99560309 L8.01441679,1.42863035 L8.04015101,3.98773525 L10.5813895,3.99560309 Z M7.01005595,1 L1,1 L1,15 L11,15 L11,4.99690393 L8.03705496,4.98773046 C7.48990191,4.98603644 7.04570346,4.5449187 7.04020157,3.99779069 L7.01005595,1 Z M1,0 L8,0 L12,4 L12,15 C12,15.5522847 11.5522847,16 11,16 L1,16 C0.44771525,16 0,15.5522847 0,15 L0,1 C0,0.44771525 0.44771525,0 1,0 Z"/><rect id="line" width="6" height="1" x="3" y="9" fill="#000"/><rect id="line" width="6" height="1" x="3" y="12" fill="#000"/></g></svg>