<svg xmlns="http://www.w3.org/2000/svg" xmlns:xlink="http://www.w3.org/1999/xlink" width="16" height="16" version="1.1" viewBox="0 0 16 16"><title>info--outline</title><desc>Created with Sketch.</desc><g id="info--outline" fill="none" fill-rule="evenodd" stroke="none" stroke-width="1"><path id="Oval-7" fill="#000" fill-rule="nonzero" d="M8,14.5 C11.5898509,14.5 14.5,11.5898509 14.5,8 C14.5,4.41014913 11.5898509,1.5 8,1.5 C4.41014913,1.5 1.5,4.41014913 1.5,8 C1.5,11.5898509 4.41014913,14.5 8,14.5 Z M8,16 C3.581722,16 0,12.418278 0,8 C0,3.581722 3.581722,0 8,0 C12.418278,0 16,3.581722 16,8 C16,12.418278 12.418278,16 8,16 Z"/><polygon id="Path-21" fill="#000" fill-rule="nonzero" points="9 13 7 13 7 7 9 7"/><circle id="Oval-8" cx="8" cy="4" r="1" fill="#000"/></g></svg>