<svg xmlns="http://www.w3.org/2000/svg" xmlns:xlink="http://www.w3.org/1999/xlink" width="24" height="24" fill-rule="evenodd" version="1.1" viewBox="0 0 24 24"><path id="Shape" fill="#000" d="M12,2 C17.5,2 22,6.5 22,12 C22,17.5 17.5,22 12,22 C6.5,22 2,17.5 2,12 C2,6.5 6.5,2 12,2 L12,2 Z M12,0 C5.4,0 0,5.4 0,12 C0,18.6 5.4,24 12,24 C18.6,24 24,18.6 24,12 C24,5.4 18.6,0 12,0 L12,0 L12,0 Z"/><polygon id="Shape" fill="#000" points="14 10 9 10 9 12 11 12 11 16 9 16 9 18 16 18 16 16 14 16"/><circle id="Oval" cx="12.5" cy="7.5" r="1.5" fill="#000"/></svg>