<svg xmlns="http://www.w3.org/2000/svg" xmlns:xlink="http://www.w3.org/1999/xlink" id="Layer_1" width="16" height="16" x="0" style="enable-background:new 0 0 16 16" y="0" version="1.1" viewBox="0 0 16 16" xml:space="preserve"><title>launch</title><desc>Created with Sketch.</desc><g id="launch"><path id="Combined-Shape" d="M14.3,1h-3.8V0H16v5.5h-1V1.7L9.7,7L9,6.3L14.3,1z"/><path id="Combined-Shape_1_" d="M14.3,1h-3.8V0H16v5.5h-1V1.7L9.7,7L9,6.3L14.3,1z"/><path id="window" d="M13,9h1v6c0,0.6-0.4,1-1,1H1c-0.6,0-1-0.4-1-1V3c0-0.6,0.4-1,1-1h7v1H1v12h12V9z"/></g></svg>