<svg xmlns="http://www.w3.org/2000/svg" xmlns:xlink="http://www.w3.org/1999/xlink" id="Layer_1" width="16" height="16" x="0" style="enable-background:new 0 0 16 16" y="0" version="1.1" viewBox="0 0 16 16" xml:space="preserve"><title>stop--outline</title><desc>Created with Sketch.</desc><g id="stop--outline"><path id="Oval-16" d="M8,14.5c3.6,0,6.5-2.9,6.5-6.5S11.6,1.5,8,1.5S1.5,4.4,1.5,8S4.4,14.5,8,14.5z M8,16c-4.4,0-8-3.6-8-8 s3.6-8,8-8s8,3.6,8,8S12.4,16,8,16z"/><path id="Rectangle-14" d="M6,6v4h4V6H6z M5,4h6c0.6,0,1,0.4,1,1v6c0,0.6-0.4,1-1,1H5c-0.6,0-1-0.4-1-1V5C4,4.4,4.4,4,5,4z"/></g></svg>