<svg xmlns="http://www.w3.org/2000/svg" xmlns:xlink="http://www.w3.org/1999/xlink" id="Layer_1" width="16" height="16" x="0" style="enable-background:new 0 0 16 16" y="0" version="1.1" viewBox="0 0 16 16" xml:space="preserve"><title>terminal</title><desc>Created with Sketch.</desc><g id="terminal"><path id="window" d="M16,4.5L16,5l0,10c0,0.6-0.4,1-1,1H1c-0.6,0-1-0.4-1-1V4.5L0,4l0-3c0-0.6,0.4-1,1-1h14c0.6,0,1,0.4,1,1V4.5z M15,4V1H1v3L15,4z M15,5L1,5v10h14V5z"/><polygon id="mini-chevron" points="3 8.4 3.7 7.6 6 9.9 3.7 12.2 3 11.5 4.6 9.9"/></g></svg>